# xmcd
#
# Track frame offsets:
#	150
#	27658
#	43415
#	64927
#	80059
#	97386
#	114344
#	128267
#	143296
#	165374
#	179393
#	195417
#	214442
#	229753
#	246586
#	265108
#	282004
#	300482
#	323423
#	337997
#
# Disc length: 4719 seconds
#
# Revision: 0
# Processed by: cddbd v1.5.2PL0 Copyright (c) Steve Scherf et al.
# Submitted via: EasyCDDAExtractor 9.1.3.1
#
DISCID=1b126d14
DTITLE=Белорусские песняры - The best
DYEAR=2007
DGENRE=
TTITLE0=Беловежская пуща
TTITLE1=Рекрут
TTITLE2=Александрина
TTITLE3=Косил Ясь конюшину
TTITLE4=Алеся
TTITLE5=Горько
TTITLE6=Наши любимые
TTITLE7=Белявая, чернявая
TTITLE8=Зачарованная
TTITLE9=Моя душа
TTITLE10=Белая ночь
TTITLE11=Скажи про любовь
TTITLE12=Цветок любви
TTITLE13=Только с тобой
TTITLE14=Берёзовый сок
TTITLE15=Не люби нелюбимого
TTITLE16=Вологда
TTITLE17=Белорусия
TTITLE18=Donna donna mia
TTITLE19=Песня из кф Весна на Заречной улице
EXTD=
EXTT0=
EXTT1=
EXTT2=
EXTT3=
EXTT4=
EXTT5=
EXTT6=
EXTT7=
EXTT8=
EXTT9=
EXTT10=
EXTT11=
EXTT12=
EXTT13=
EXTT14=
EXTT15=
EXTT16=
EXTT17=
EXTT18=
EXTT19=
PLAYORDER=
